<mxfile host="app.diagrams.net" modified="2021-01-05T09:42:20.871Z" agent="5.0 (Macintosh; Intel Mac OS X 10_15_7) AppleWebKit/537.36 (KHTML, like Gecko) Chrome/87.0.4280.88 Safari/537.36" etag="ZuVG2j6gXyv0YDlhpspQ" version="14.1.8" type="github">
  <diagram id="C5RBs43oDa-KdzZeNtuy" name="Page-1">
    <mxGraphModel dx="788" dy="512" grid="1" gridSize="10" guides="1" tooltips="1" connect="1" arrows="1" fold="1" page="1" pageScale="1" pageWidth="827" pageHeight="1169" math="0" shadow="0">
      <root>
        <mxCell id="WIyWlLk6GJQsqaUBKTNV-0" />
        <mxCell id="WIyWlLk6GJQsqaUBKTNV-1" parent="WIyWlLk6GJQsqaUBKTNV-0" />
        <mxCell id="4YVHYWDLPgdBlnC_Ygs1-0" value="GestureBinding" style="rounded=1;whiteSpace=wrap;html=1;" vertex="1" parent="WIyWlLk6GJQsqaUBKTNV-1">
          <mxGeometry x="90" y="90" width="120" height="40" as="geometry" />
        </mxCell>
        <mxCell id="4YVHYWDLPgdBlnC_Ygs1-1" value="RendererBinding" style="rounded=1;whiteSpace=wrap;html=1;" vertex="1" parent="WIyWlLk6GJQsqaUBKTNV-1">
          <mxGeometry x="280" y="90" width="120" height="40" as="geometry" />
        </mxCell>
        <mxCell id="4YVHYWDLPgdBlnC_Ygs1-3" value="&lt;span&gt;RenderView&lt;/span&gt;" style="rounded=1;whiteSpace=wrap;html=1;" vertex="1" parent="WIyWlLk6GJQsqaUBKTNV-1">
          <mxGeometry x="470" y="90" width="110" height="40" as="geometry" />
        </mxCell>
        <mxCell id="4YVHYWDLPgdBlnC_Ygs1-4" value="RenderObject" style="rounded=1;whiteSpace=wrap;html=1;" vertex="1" parent="WIyWlLk6GJQsqaUBKTNV-1">
          <mxGeometry x="640" y="90" width="110" height="40" as="geometry" />
        </mxCell>
        <mxCell id="4YVHYWDLPgdBlnC_Ygs1-5" value="" style="endArrow=none;dashed=1;html=1;entryX=0.5;entryY=1;entryDx=0;entryDy=0;" edge="1" parent="WIyWlLk6GJQsqaUBKTNV-1" source="4YVHYWDLPgdBlnC_Ygs1-10" target="4YVHYWDLPgdBlnC_Ygs1-0">
          <mxGeometry width="50" height="50" relative="1" as="geometry">
            <mxPoint x="150" y="540" as="sourcePoint" />
            <mxPoint x="490" y="220" as="targetPoint" />
          </mxGeometry>
        </mxCell>
        <mxCell id="4YVHYWDLPgdBlnC_Ygs1-6" value="" style="endArrow=none;dashed=1;html=1;entryX=0.5;entryY=1;entryDx=0;entryDy=0;" edge="1" parent="WIyWlLk6GJQsqaUBKTNV-1" source="4YVHYWDLPgdBlnC_Ygs1-12">
          <mxGeometry width="50" height="50" relative="1" as="geometry">
            <mxPoint x="339.5" y="540" as="sourcePoint" />
            <mxPoint x="339.5" y="130" as="targetPoint" />
          </mxGeometry>
        </mxCell>
        <mxCell id="4YVHYWDLPgdBlnC_Ygs1-7" value="" style="endArrow=none;dashed=1;html=1;entryX=0.5;entryY=1;entryDx=0;entryDy=0;" edge="1" parent="WIyWlLk6GJQsqaUBKTNV-1" source="4YVHYWDLPgdBlnC_Ygs1-20">
          <mxGeometry width="50" height="50" relative="1" as="geometry">
            <mxPoint x="524.5" y="540" as="sourcePoint" />
            <mxPoint x="524.5" y="130" as="targetPoint" />
          </mxGeometry>
        </mxCell>
        <mxCell id="4YVHYWDLPgdBlnC_Ygs1-8" value="" style="endArrow=none;dashed=1;html=1;entryX=0.5;entryY=1;entryDx=0;entryDy=0;" edge="1" parent="WIyWlLk6GJQsqaUBKTNV-1" source="4YVHYWDLPgdBlnC_Ygs1-22">
          <mxGeometry width="50" height="50" relative="1" as="geometry">
            <mxPoint x="694.5" y="540" as="sourcePoint" />
            <mxPoint x="694.5" y="130" as="targetPoint" />
          </mxGeometry>
        </mxCell>
        <mxCell id="4YVHYWDLPgdBlnC_Ygs1-48" style="edgeStyle=orthogonalEdgeStyle;rounded=0;orthogonalLoop=1;jettySize=auto;html=1;exitX=0.99;exitY=0.092;exitDx=0;exitDy=0;entryX=0;entryY=0;entryDx=0;entryDy=0;exitPerimeter=0;" edge="1" parent="WIyWlLk6GJQsqaUBKTNV-1" source="4YVHYWDLPgdBlnC_Ygs1-10" target="4YVHYWDLPgdBlnC_Ygs1-12">
          <mxGeometry relative="1" as="geometry">
            <Array as="points">
              <mxPoint x="155" y="220" />
            </Array>
          </mxGeometry>
        </mxCell>
        <mxCell id="4YVHYWDLPgdBlnC_Ygs1-50" value="hitTest" style="edgeLabel;html=1;align=center;verticalAlign=middle;resizable=0;points=[];" vertex="1" connectable="0" parent="4YVHYWDLPgdBlnC_Ygs1-48">
          <mxGeometry x="0.1185" relative="1" as="geometry">
            <mxPoint as="offset" />
          </mxGeometry>
        </mxCell>
        <mxCell id="4YVHYWDLPgdBlnC_Ygs1-76" style="edgeStyle=orthogonalEdgeStyle;rounded=0;orthogonalLoop=1;jettySize=auto;html=1;exitX=1;exitY=0.75;exitDx=0;exitDy=0;entryX=1;entryY=0.5;entryDx=0;entryDy=0;" edge="1" parent="WIyWlLk6GJQsqaUBKTNV-1" source="4YVHYWDLPgdBlnC_Ygs1-10" target="4YVHYWDLPgdBlnC_Ygs1-74">
          <mxGeometry relative="1" as="geometry">
            <mxPoint x="190" y="420" as="targetPoint" />
            <Array as="points">
              <mxPoint x="200" y="388" />
              <mxPoint x="200" y="420" />
            </Array>
          </mxGeometry>
        </mxCell>
        <mxCell id="4YVHYWDLPgdBlnC_Ygs1-77" value="add" style="edgeLabel;html=1;align=center;verticalAlign=middle;resizable=0;points=[];" vertex="1" connectable="0" parent="4YVHYWDLPgdBlnC_Ygs1-76">
          <mxGeometry x="-0.0128" relative="1" as="geometry">
            <mxPoint as="offset" />
          </mxGeometry>
        </mxCell>
        <mxCell id="4YVHYWDLPgdBlnC_Ygs1-10" value="" style="rounded=0;whiteSpace=wrap;html=1;" vertex="1" parent="WIyWlLk6GJQsqaUBKTNV-1">
          <mxGeometry x="145" y="200" width="10" height="250" as="geometry" />
        </mxCell>
        <mxCell id="4YVHYWDLPgdBlnC_Ygs1-11" value="" style="endArrow=none;dashed=1;html=1;entryX=0.5;entryY=1;entryDx=0;entryDy=0;" edge="1" parent="WIyWlLk6GJQsqaUBKTNV-1" target="4YVHYWDLPgdBlnC_Ygs1-10">
          <mxGeometry width="50" height="50" relative="1" as="geometry">
            <mxPoint x="150" y="540" as="sourcePoint" />
            <mxPoint x="150" y="130" as="targetPoint" />
          </mxGeometry>
        </mxCell>
        <mxCell id="4YVHYWDLPgdBlnC_Ygs1-52" style="edgeStyle=orthogonalEdgeStyle;rounded=0;orthogonalLoop=1;jettySize=auto;html=1;exitX=1;exitY=0;exitDx=0;exitDy=0;entryX=0;entryY=0;entryDx=0;entryDy=0;" edge="1" parent="WIyWlLk6GJQsqaUBKTNV-1" source="4YVHYWDLPgdBlnC_Ygs1-12" target="4YVHYWDLPgdBlnC_Ygs1-20">
          <mxGeometry relative="1" as="geometry">
            <Array as="points">
              <mxPoint x="345" y="240" />
            </Array>
          </mxGeometry>
        </mxCell>
        <mxCell id="4YVHYWDLPgdBlnC_Ygs1-53" value="hitTest" style="edgeLabel;html=1;align=center;verticalAlign=middle;resizable=0;points=[];" vertex="1" connectable="0" parent="4YVHYWDLPgdBlnC_Ygs1-52">
          <mxGeometry x="0.1769" relative="1" as="geometry">
            <mxPoint as="offset" />
          </mxGeometry>
        </mxCell>
        <mxCell id="4YVHYWDLPgdBlnC_Ygs1-73" value="add" style="edgeStyle=orthogonalEdgeStyle;rounded=0;orthogonalLoop=1;jettySize=auto;html=1;exitX=0;exitY=1;exitDx=0;exitDy=0;entryX=1.033;entryY=0.672;entryDx=0;entryDy=0;entryPerimeter=0;" edge="1" parent="WIyWlLk6GJQsqaUBKTNV-1" source="4YVHYWDLPgdBlnC_Ygs1-12" target="4YVHYWDLPgdBlnC_Ygs1-10">
          <mxGeometry relative="1" as="geometry">
            <mxPoint x="170" y="360" as="targetPoint" />
            <Array as="points">
              <mxPoint x="335" y="368" />
            </Array>
          </mxGeometry>
        </mxCell>
        <mxCell id="4YVHYWDLPgdBlnC_Ygs1-12" value="" style="rounded=0;whiteSpace=wrap;html=1;" vertex="1" parent="WIyWlLk6GJQsqaUBKTNV-1">
          <mxGeometry x="335" y="220" width="10" height="150" as="geometry" />
        </mxCell>
        <mxCell id="4YVHYWDLPgdBlnC_Ygs1-13" value="" style="endArrow=none;dashed=1;html=1;entryX=0.5;entryY=1;entryDx=0;entryDy=0;" edge="1" parent="WIyWlLk6GJQsqaUBKTNV-1" target="4YVHYWDLPgdBlnC_Ygs1-12">
          <mxGeometry width="50" height="50" relative="1" as="geometry">
            <mxPoint x="339.5" y="540" as="sourcePoint" />
            <mxPoint x="339.5" y="130" as="targetPoint" />
          </mxGeometry>
        </mxCell>
        <mxCell id="4YVHYWDLPgdBlnC_Ygs1-54" style="edgeStyle=orthogonalEdgeStyle;rounded=0;orthogonalLoop=1;jettySize=auto;html=1;exitX=1;exitY=0;exitDx=0;exitDy=0;entryX=0;entryY=0;entryDx=0;entryDy=0;" edge="1" parent="WIyWlLk6GJQsqaUBKTNV-1" source="4YVHYWDLPgdBlnC_Ygs1-20" target="4YVHYWDLPgdBlnC_Ygs1-22">
          <mxGeometry relative="1" as="geometry">
            <Array as="points">
              <mxPoint x="530" y="250" />
            </Array>
          </mxGeometry>
        </mxCell>
        <mxCell id="4YVHYWDLPgdBlnC_Ygs1-55" value="hitTest" style="edgeLabel;html=1;align=center;verticalAlign=middle;resizable=0;points=[];" vertex="1" connectable="0" parent="4YVHYWDLPgdBlnC_Ygs1-54">
          <mxGeometry x="-0.0375" y="1" relative="1" as="geometry">
            <mxPoint as="offset" />
          </mxGeometry>
        </mxCell>
        <mxCell id="4YVHYWDLPgdBlnC_Ygs1-69" style="edgeStyle=orthogonalEdgeStyle;rounded=0;orthogonalLoop=1;jettySize=auto;html=1;exitX=0;exitY=1;exitDx=0;exitDy=0;entryX=1.2;entryY=0.881;entryDx=0;entryDy=0;entryPerimeter=0;" edge="1" parent="WIyWlLk6GJQsqaUBKTNV-1" source="4YVHYWDLPgdBlnC_Ygs1-20" target="4YVHYWDLPgdBlnC_Ygs1-12">
          <mxGeometry relative="1" as="geometry">
            <Array as="points">
              <mxPoint x="520" y="352" />
            </Array>
          </mxGeometry>
        </mxCell>
        <mxCell id="4YVHYWDLPgdBlnC_Ygs1-70" value="add" style="edgeLabel;html=1;align=center;verticalAlign=middle;resizable=0;points=[];" vertex="1" connectable="0" parent="4YVHYWDLPgdBlnC_Ygs1-69">
          <mxGeometry x="0.0105" y="-2" relative="1" as="geometry">
            <mxPoint as="offset" />
          </mxGeometry>
        </mxCell>
        <mxCell id="4YVHYWDLPgdBlnC_Ygs1-20" value="" style="rounded=0;whiteSpace=wrap;html=1;" vertex="1" parent="WIyWlLk6GJQsqaUBKTNV-1">
          <mxGeometry x="520" y="240" width="10" height="110" as="geometry" />
        </mxCell>
        <mxCell id="4YVHYWDLPgdBlnC_Ygs1-21" value="" style="endArrow=none;dashed=1;html=1;entryX=0.5;entryY=1;entryDx=0;entryDy=0;" edge="1" parent="WIyWlLk6GJQsqaUBKTNV-1" target="4YVHYWDLPgdBlnC_Ygs1-20">
          <mxGeometry width="50" height="50" relative="1" as="geometry">
            <mxPoint x="524.5" y="540" as="sourcePoint" />
            <mxPoint x="524.5" y="130" as="targetPoint" />
          </mxGeometry>
        </mxCell>
        <mxCell id="4YVHYWDLPgdBlnC_Ygs1-61" style="edgeStyle=orthogonalEdgeStyle;rounded=0;orthogonalLoop=1;jettySize=auto;html=1;exitX=1;exitY=0;exitDx=0;exitDy=0;entryX=1;entryY=0.5;entryDx=0;entryDy=0;" edge="1" parent="WIyWlLk6GJQsqaUBKTNV-1" source="4YVHYWDLPgdBlnC_Ygs1-22" target="4YVHYWDLPgdBlnC_Ygs1-45">
          <mxGeometry relative="1" as="geometry">
            <mxPoint x="720" y="280" as="targetPoint" />
            <Array as="points">
              <mxPoint x="760" y="250" />
              <mxPoint x="760" y="275" />
            </Array>
          </mxGeometry>
        </mxCell>
        <mxCell id="4YVHYWDLPgdBlnC_Ygs1-62" value="hitTestChildren" style="edgeLabel;html=1;align=center;verticalAlign=middle;resizable=0;points=[];" vertex="1" connectable="0" parent="4YVHYWDLPgdBlnC_Ygs1-61">
          <mxGeometry x="-0.4318" y="-1" relative="1" as="geometry">
            <mxPoint as="offset" />
          </mxGeometry>
        </mxCell>
        <mxCell id="4YVHYWDLPgdBlnC_Ygs1-65" style="edgeStyle=orthogonalEdgeStyle;rounded=0;orthogonalLoop=1;jettySize=auto;html=1;exitX=0;exitY=1;exitDx=0;exitDy=0;entryX=1.033;entryY=0.921;entryDx=0;entryDy=0;entryPerimeter=0;" edge="1" parent="WIyWlLk6GJQsqaUBKTNV-1" source="4YVHYWDLPgdBlnC_Ygs1-22" target="4YVHYWDLPgdBlnC_Ygs1-20">
          <mxGeometry relative="1" as="geometry">
            <Array as="points">
              <mxPoint x="690" y="341" />
            </Array>
          </mxGeometry>
        </mxCell>
        <mxCell id="4YVHYWDLPgdBlnC_Ygs1-66" value="add" style="edgeLabel;html=1;align=center;verticalAlign=middle;resizable=0;points=[];" vertex="1" connectable="0" parent="4YVHYWDLPgdBlnC_Ygs1-65">
          <mxGeometry x="-0.0559" relative="1" as="geometry">
            <mxPoint as="offset" />
          </mxGeometry>
        </mxCell>
        <mxCell id="4YVHYWDLPgdBlnC_Ygs1-22" value="" style="rounded=0;whiteSpace=wrap;html=1;" vertex="1" parent="WIyWlLk6GJQsqaUBKTNV-1">
          <mxGeometry x="690" y="250" width="10" height="90" as="geometry" />
        </mxCell>
        <mxCell id="4YVHYWDLPgdBlnC_Ygs1-24" value="" style="endArrow=none;dashed=1;html=1;entryX=0.5;entryY=1;entryDx=0;entryDy=0;" edge="1" parent="WIyWlLk6GJQsqaUBKTNV-1" target="4YVHYWDLPgdBlnC_Ygs1-22">
          <mxGeometry width="50" height="50" relative="1" as="geometry">
            <mxPoint x="694.5" y="540" as="sourcePoint" />
            <mxPoint x="694.5" y="130" as="targetPoint" />
          </mxGeometry>
        </mxCell>
        <mxCell id="4YVHYWDLPgdBlnC_Ygs1-45" value="" style="rounded=0;whiteSpace=wrap;html=1;" vertex="1" parent="WIyWlLk6GJQsqaUBKTNV-1">
          <mxGeometry x="700" y="260" width="10" height="30" as="geometry" />
        </mxCell>
        <mxCell id="4YVHYWDLPgdBlnC_Ygs1-58" value="" style="rounded=0;whiteSpace=wrap;html=1;" vertex="1" parent="WIyWlLk6GJQsqaUBKTNV-1">
          <mxGeometry x="700" y="310" width="10" height="30" as="geometry" />
        </mxCell>
        <mxCell id="4YVHYWDLPgdBlnC_Ygs1-63" style="edgeStyle=orthogonalEdgeStyle;rounded=0;orthogonalLoop=1;jettySize=auto;html=1;exitX=1;exitY=0;exitDx=0;exitDy=0;entryX=1;entryY=0.5;entryDx=0;entryDy=0;" edge="1" parent="WIyWlLk6GJQsqaUBKTNV-1">
          <mxGeometry relative="1" as="geometry">
            <mxPoint x="710" y="325" as="targetPoint" />
            <mxPoint x="700" y="300.0000000000001" as="sourcePoint" />
            <Array as="points">
              <mxPoint x="760" y="300" />
              <mxPoint x="760" y="325" />
            </Array>
          </mxGeometry>
        </mxCell>
        <mxCell id="4YVHYWDLPgdBlnC_Ygs1-64" value="&lt;span style=&quot;font-size: 11px&quot;&gt;hitTestSelf&lt;/span&gt;" style="edgeLabel;html=1;align=center;verticalAlign=middle;resizable=0;points=[];" vertex="1" connectable="0" parent="4YVHYWDLPgdBlnC_Ygs1-63">
          <mxGeometry x="-0.4318" y="-1" relative="1" as="geometry">
            <mxPoint as="offset" />
          </mxGeometry>
        </mxCell>
        <mxCell id="4YVHYWDLPgdBlnC_Ygs1-74" value="" style="rounded=0;whiteSpace=wrap;html=1;" vertex="1" parent="WIyWlLk6GJQsqaUBKTNV-1">
          <mxGeometry x="150" y="400" width="10" height="40" as="geometry" />
        </mxCell>
      </root>
    </mxGraphModel>
  </diagram>
</mxfile>
